<svg xmlns="http://www.w3.org/2000/svg" viewBox="0 0 32 32"><path fill="#999" d="M16.005-.016c-8.837 0-16 7.163-16 16 0 8.836 7.163 16 16 16s16-7.164 16-16-7.163-16-16-16z"/><path fill="#FFF" d="M13.024 19.114a1.734 1.734 0 0 1-1.733-1.732c0-.955.777-1.732 1.733-1.732.955 0 1.732.777 1.732 1.732s-.777 1.732-1.732 1.732zm12.536-1.208c.026.198.04.393.04.583 0 3.602-4.309 6.533-9.607 6.533s-9.607-2.931-9.607-6.533c0-.197.015-.401.043-.608a2.642 2.642 0 0 1-1.08-2.131 2.659 2.659 0 0 1 2.656-2.656c.571 0 1.127.186 1.584.526 1.647-1.001 3.746-1.585 5.953-1.655l1.692-4.809 4.055.969a2.209 2.209 0 0 1 1.958-1.18 2.22 2.22 0 0 1 2.217 2.217 2.22 2.22 0 0 1-2.217 2.217c-1.15 0-2.1-.882-2.207-2.005l-2.987-.714-1.17 3.324c2.05.13 3.995.708 5.531 1.647a2.652 2.652 0 0 1 1.6-.538 2.659 2.659 0 0 1 2.656 2.656 2.632 2.632 0 0 1-1.11 2.157zM6.622 15.75c0 .266.078.524.221.745.35-.742.898-1.441 1.611-2.055a1.386 1.386 0 0 0-1.832 1.31zm17.704 2.739c0-2.901-3.739-5.26-8.334-5.26s-8.334 2.36-8.334 5.26 3.739 5.26 8.334 5.26c4.596 0 8.334-2.359 8.334-5.26zm-.784-4.039c.717.62 1.267 1.328 1.614 2.078a1.37 1.37 0 0 0 .243-.778 1.386 1.386 0 0 0-1.857-1.3zm-1.238-5.286a.945.945 0 0 0 1.888 0 .945.945 0 0 0-1.888 0zm-3.113 11.305a.63.63 0 0 0-.45.186c-.034.034-.867.817-2.766.817-1.876 0-2.632-.784-2.634-.786a.636.636 0 0 0-.963.831c.03.035.307.349.894.648.753.384 1.662.579 2.703.579 1.034 0 1.955-.192 2.736-.569.606-.293.907-.598.94-.632a.634.634 0 1 0-.46-1.074zm-.02-4.82c-.956 0-1.733.777-1.733 1.732s.777 1.732 1.733 1.732c.955 0 1.732-.777 1.732-1.732s-.777-1.732-1.732-1.732z"/></svg>